# xmcd
# 
# Track frame offsets:
#     150
#     17290
#     32704
#     47145
#     61478
#     79013
#     98029
#     115004
#     129654
#     143912
#     159050
#     175520
#     190568
#     206469
#     223984
#     246405
# 
# Disc length: 3511
# 
# Revision: 1
# Processed by: cddbd v1.5.2PL0 Copyright (c) Steve Scherf et al.
# Submitted via: fre:ac v1.0.31
# 
DISCID=cf0db510
DTITLE=Femme Schmidt - Femme Schmidt (Deluxe Edition 2013)
DYEAR=2012
DGENRE=Soul
TTITLE0=Heart Shaped Gun
TTITLE1=Shadowman
TTITLE2=In The Photo Booth
TTITLE3=Boom Boom
TTITLE4=Stockings and Belt
TTITLE5=Black Roses
TTITLE6=Alain Delon
TTITLE7=Do The Dada
TTITLE8=Sin City
TTITLE9=Stay
TTITLE10=Under My Heart
TTITLE11=Voodoo Eyes
TTITLE12=Remote Control
TTITLE13=Defenceless
TTITLE14=I Try (Live Version)
TTITLE15=Heart Shaped Gun (Duet Version with Robin)
EXTD=
EXTT0=
EXTT1=
EXTT2=
EXTT3=
EXTT4=
EXTT5=
EXTT6=
EXTT7=
EXTT8=
EXTT9=
EXTT10=
EXTT11=
EXTT12=
EXTT13=
EXTT14=
EXTT15=
PLAYORDER=
